<mxfile host="65bd71144e">
    <diagram id="e5_rDQPrlVu6uV2F2w6Q" name="Page-1">
        <mxGraphModel dx="3500" dy="1195" grid="1" gridSize="10" guides="1" tooltips="1" connect="1" arrows="1" fold="1" page="1" pageScale="1" pageWidth="850" pageHeight="1100" math="0" shadow="0">
            <root>
                <mxCell id="0"/>
                <mxCell id="1" parent="0"/>
                <mxCell id="8" value="" style="edgeStyle=none;html=1;fontSize=16;" parent="1" source="2" target="6" edge="1">
                    <mxGeometry relative="1" as="geometry"/>
                </mxCell>
                <mxCell id="2" value="&lt;div style=&quot;text-align: center&quot;&gt;&lt;span style=&quot;font-size: 16px&quot;&gt;Front end:&lt;/span&gt;&lt;/div&gt;&lt;span style=&quot;font-size: 16px&quot;&gt;&lt;ul&gt;&lt;li&gt;&lt;span style=&quot;font-size: 16px&quot;&gt;User would provide the name of the song&lt;/span&gt;&lt;/li&gt;&lt;li&gt;Which would be send to the backend as a POST request containg the data provided by the user&lt;/li&gt;&lt;/ul&gt;&lt;/span&gt;" style="rounded=1;whiteSpace=wrap;html=1;align=left;fillColor=#1ba1e2;fontColor=#ffffff;strokeColor=#006EAF;" parent="1" vertex="1">
                    <mxGeometry x="-660" y="160" width="410" height="130" as="geometry"/>
                </mxCell>
                <mxCell id="10" value="" style="edgeStyle=none;html=1;fontSize=16;rounded=1;" parent="1" source="6" target="9" edge="1">
                    <mxGeometry relative="1" as="geometry"/>
                </mxCell>
                <mxCell id="6" value="&lt;font style=&quot;font-size: 16px&quot;&gt;&lt;br&gt;&lt;div style=&quot;text-align: center&quot;&gt;&lt;span&gt;Back end:&lt;/span&gt;&lt;/div&gt;&lt;ul&gt;&lt;li&gt;&lt;font style=&quot;font-size: 16px&quot;&gt;Would recieve a POST reuqest from the frontend containing the data/name of the song&lt;/font&gt;&lt;/li&gt;&lt;li&gt;&lt;font style=&quot;font-size: 16px&quot;&gt;Perfroms validation&lt;/font&gt;&lt;/li&gt;&lt;/ul&gt;&lt;/font&gt;" style="rounded=1;whiteSpace=wrap;html=1;align=left;fillColor=#CCCC00;fontColor=#ffffff;strokeColor=#006EAF;" parent="1" vertex="1">
                    <mxGeometry x="-660" y="350" width="415" height="140" as="geometry"/>
                </mxCell>
                <mxCell id="14" value="" style="edgeStyle=none;html=1;fontSize=16;" parent="1" source="9" target="13" edge="1">
                    <mxGeometry relative="1" as="geometry"/>
                </mxCell>
                <mxCell id="18" value="" style="edgeStyle=none;html=1;fontSize=16;" parent="1" source="9" target="17" edge="1">
                    <mxGeometry relative="1" as="geometry"/>
                </mxCell>
                <mxCell id="9" value="&lt;font style=&quot;font-size: 16px&quot;&gt;If validation was successful&lt;/font&gt;" style="rhombus;whiteSpace=wrap;html=1;align=center;fillColor=#FF0080;strokeColor=#006EAF;fontColor=#ffffff;rounded=1;" parent="1" vertex="1">
                    <mxGeometry x="-540" y="560" width="180" height="140" as="geometry"/>
                </mxCell>
                <mxCell id="13" value="&lt;span style=&quot;font-size: 16px&quot;&gt;A response is sent to the frontend containing youtube url(s), and the download link for each url&lt;/span&gt;" style="whiteSpace=wrap;html=1;fillColor=#00CC00;strokeColor=#2D7600;fontColor=#ffffff;rounded=1;align=center;" parent="1" vertex="1">
                    <mxGeometry x="-588.12" y="770" width="276.25" height="80" as="geometry"/>
                </mxCell>
                <mxCell id="15" value="True" style="text;html=1;align=center;verticalAlign=middle;resizable=0;points=[];autosize=1;strokeColor=none;fillColor=none;fontSize=16;" parent="1" vertex="1">
                    <mxGeometry x="-455" y="710" width="50" height="20" as="geometry"/>
                </mxCell>
                <mxCell id="16" value="False" style="text;html=1;align=center;verticalAlign=middle;resizable=0;points=[];autosize=1;strokeColor=none;fillColor=none;fontSize=16;" parent="1" vertex="1">
                    <mxGeometry x="-361.87" y="600" width="50" height="20" as="geometry"/>
                </mxCell>
                <mxCell id="17" value="&lt;font style=&quot;font-size: 16px&quot;&gt;A 404 Error is sent since the user input is not valid&lt;/font&gt;" style="whiteSpace=wrap;html=1;fillColor=#FF0000;strokeColor=#6F0000;fontColor=#ffffff;rounded=1;" parent="1" vertex="1">
                    <mxGeometry x="-300" y="600" width="260" height="60" as="geometry"/>
                </mxCell>
                <mxCell id="19" value="" style="shape=curlyBracket;whiteSpace=wrap;html=1;rounded=1;fontSize=16;fillColor=#FF0080;" vertex="1" parent="1">
                    <mxGeometry x="-760" y="160" width="20" height="690" as="geometry"/>
                </mxCell>
                <mxCell id="20" value="Rough &lt;br&gt;planning" style="text;html=1;align=left;verticalAlign=middle;resizable=0;points=[];autosize=1;strokeColor=none;fillColor=none;fontSize=16;" vertex="1" parent="1">
                    <mxGeometry x="-820" y="505" width="80" height="40" as="geometry"/>
                </mxCell>
                <mxCell id="21" value="" style="shape=curlyBracket;whiteSpace=wrap;html=1;rounded=1;flipH=1;fontSize=16;fillColor=#FF0080;" vertex="1" parent="1">
                    <mxGeometry x="-240" y="160" width="20" height="125" as="geometry"/>
                </mxCell>
                <mxCell id="22" value="Simple&lt;br&gt;Frontend&amp;nbsp;" style="text;html=1;align=center;verticalAlign=middle;resizable=0;points=[];autosize=1;strokeColor=none;fillColor=none;fontSize=16;" vertex="1" parent="1">
                    <mxGeometry x="-220" y="202.5" width="80" height="40" as="geometry"/>
                </mxCell>
                <mxCell id="23" value="" style="shape=curlyBracket;whiteSpace=wrap;html=1;rounded=1;flipH=1;fontSize=16;fillColor=#FF0080;rotation=-180;" vertex="1" parent="1">
                    <mxGeometry x="-550" y="570" width="20" height="130" as="geometry"/>
                </mxCell>
                <mxCell id="24" value="&lt;span&gt;Use youtube API to&amp;nbsp;&lt;/span&gt;&lt;span&gt;check &lt;br&gt;whether the name is valid&lt;/span&gt;" style="text;html=1;align=left;verticalAlign=middle;resizable=0;points=[];autosize=1;strokeColor=none;fillColor=none;fontSize=16;" vertex="1" parent="1">
                    <mxGeometry x="-740" y="615" width="200" height="40" as="geometry"/>
                </mxCell>
                <mxCell id="29" value="" style="shape=curlyBracket;whiteSpace=wrap;html=1;rounded=1;flipH=1;fontSize=16;fillColor=#FF0080;rotation=0;" vertex="1" parent="1">
                    <mxGeometry x="-240" y="350" width="20" height="140" as="geometry"/>
                </mxCell>
                <mxCell id="30" value="&lt;font style=&quot;font-size: 16px&quot;&gt;Use the fetch API to &lt;br&gt;send a POST request&lt;/font&gt;" style="text;html=1;align=left;verticalAlign=middle;resizable=0;points=[];autosize=1;strokeColor=none;fillColor=none;" vertex="1" parent="1">
                    <mxGeometry x="-220" y="400" width="170" height="40" as="geometry"/>
                </mxCell>
            </root>
        </mxGraphModel>
    </diagram>
</mxfile>
